<svg xmlns="http://www.w3.org/2000/svg" width="77" height="36" viewBox="0 0 77 36">
  <defs>
    <style>
      .cls-1 {
        fill: #ea384d;
      }

      .cls-2 {
        fill: #d5d5d5;
        font-size: 16px;
        font-family: Lato-Bold, Lato;
        font-weight: 700;
        letter-spacing: 0.07em;
      }

      .cls-3 {
        fill: #464646;
        opacity: 0.35;
      }

      .cls-4 {
        fill: #414345;
      }
    </style>
  </defs>
  <g id="logo2" transform="translate(-775 -492)">
    <g id="Group_10" data-name="Group 10">
      <g id="controller" transform="translate(817.712 496.293)">
        <path id="Path_298" data-name="Path 298" class="cls-1" d="M68.095,26.206a2.038,2.038,0,1,1-2.038-2.038A2.038,2.038,0,0,1,68.095,26.206Zm0,0" transform="translate(-62.307 -23.552)"/>
        <path id="Path_299" data-name="Path 299" class="cls-1" d="M112.427,240.372a.2.2,0,1,1-.2-.2A.2.2,0,0,1,112.427,240.372Zm0,0" transform="translate(-109.084 -234.051)"/>
        <path id="Path_300" data-name="Path 300" class="cls-1" d="M160.427,240.372a.2.2,0,1,1-.2-.2A.2.2,0,0,1,160.427,240.372Zm0,0" transform="translate(-155.862 -234.051)"/>
        <path id="Path_301" data-name="Path 301" class="cls-1" d="M82.422,219.428a15.159,15.159,0,0,1-.355,3.26h3.156a15.131,15.131,0,0,1,0-6.521H82.066A15.166,15.166,0,0,1,82.422,219.428Zm.408.611v-1.223a.815.815,0,0,1,1.63,0v1.223a.815.815,0,1,1-1.63,0Zm1.426,2.445h-.408v-.408h.408Zm.611,0H84.46v-.408h.408Zm0-.611H84.46v-.408h.408Zm-1.834-5.5a.611.611,0,0,1,.611.611.611.611,0,1,1,.611.611.611.611,0,0,1-.611-.611.611.611,0,1,1-.611-.611Zm0,0" transform="translate(-79.894 -210.662)"/>
        <path id="Path_302" data-name="Path 302" class="cls-1" d="M128.427,304.168a.408.408,0,0,0-.408.408V305.8a.408.408,0,0,0,.815,0v-1.223A.408.408,0,0,0,128.427,304.168Zm.2,1.223h-.408v-.408h.408Zm0,0" transform="translate(-124.677 -296.42)"/>
        <path id="Path_303" data-name="Path 303" class="cls-1" d="M.491,2.653A3.236,3.236,0,0,1,1.445.348.2.2,0,1,0,1.157.06a3.672,3.672,0,0,0,0,5.187.2.2,0,0,0,.288-.288A3.236,3.236,0,0,1,.491,2.653Zm0,0" transform="translate(0 0)"/>
        <path id="Path_304" data-name="Path 304" class="cls-1" d="M232.528.06a.2.2,0,0,0-.288.288,3.264,3.264,0,0,1,0,4.611.2.2,0,0,0,.288.288A3.672,3.672,0,0,0,232.528.06Zm0,0" transform="translate(-226.184)"/>
      </g>
      <text id="G" class="cls-2" transform="matrix(-1, 0, 0, 1, 787, 508)"><tspan x="0" y="0">G</tspan></text>
      <g id="Group_6" data-name="Group 6">
        <path id="Path_305" data-name="Path 305" class="cls-1" d="M15,8.5A6.5,6.5,0,1,1,8.5,2,6.5,6.5,0,0,1,15,8.5Z" transform="translate(785.595 494)"/>
        <path id="Path_306" data-name="Path 306" class="cls-3" d="M22.537,19.1l0,0c-.007-.008-.015-.015-.022-.022s-.016-.015-.023-.023a.312.312,0,0,0-.022-.022c-.007-.009-.015-.015-.023-.023s-.015-.015-.022-.022-.016-.015-.023-.022a.218.218,0,0,0-.022-.022c-.007-.009-.016-.015-.023-.023s-.015-.015-.022-.022-.015-.015-.022-.022-.015-.015-.023-.022-.015-.015-.023-.023-.015-.015-.022-.022-.016-.015-.023-.022a.275.275,0,0,0-.022-.022c-.007-.009-.015-.015-.023-.023s-.015-.015-.022-.023-.015-.015-.023-.022a.28.28,0,0,0-.023-.022l-.023-.023c-.007-.008-.015-.014-.022-.022s-.015-.015-.023-.023-.015-.015-.023-.023-.015-.015-.023-.023l-.022-.023c-.007-.009-.015-.015-.023-.022a.28.28,0,0,0-.023-.022c-.007-.009-.015-.015-.023-.023l-.022-.023-.022-.022a.294.294,0,0,0-.023-.023c-.007-.009-.015-.015-.023-.022s-.015-.015-.022-.023l-.022-.022-.023-.023c-.007-.009-.015-.015-.023-.023s-.015-.015-.022-.022l-.022-.023c-.007-.009-.015-.015-.023-.022a.279.279,0,0,0-.023-.022c-.007-.009-.015-.015-.022-.023l-.022-.022c-.007-.009-.015-.015-.023-.022s-.016-.015-.023-.023-.015-.014-.022-.022l-.022-.022-.023-.023c-.007-.008-.015-.015-.023-.022a.222.222,0,0,0-.022-.022.315.315,0,0,0-.022-.022.294.294,0,0,0-.023-.023c-.007-.009-.015-.015-.023-.023s-.015-.015-.022-.022l-.022-.023c-.007-.009-.015-.015-.023-.022s-.016-.015-.023-.022a.246.246,0,0,0-.022-.022c-.007-.009-.015-.015-.023-.023s-.015-.014-.022-.022a.29.29,0,0,0-.023-.023.245.245,0,0,0-.022-.022c-.007-.009-.015-.015-.023-.023s-.015-.014-.022-.022l-.023-.023a.281.281,0,0,0-.023-.022c-.007-.009-.015-.015-.022-.023l-.023-.023c-.007-.009-.016-.015-.023-.023s-.015-.015-.022-.022-.015-.015-.023-.023l-.023-.023-.022-.022-.023-.023c-.007-.008-.015-.015-.022-.022s-.015-.015-.023-.023-.014-.015-.022-.022-.016-.015-.023-.023-.015-.014-.022-.022-.016-.015-.023-.023-.015-.015-.023-.023-.015-.015-.022-.022-.015-.015-.023-.023-.015-.015-.023-.023-.015-.015-.023-.023-.015-.015-.022-.022-.015-.015-.023-.023-.015-.015-.023-.023l-.022-.022c-.008-.009-.016-.015-.023-.023s-.015-.014-.022-.022-.016-.015-.023-.023-.014-.015-.022-.022-.016-.015-.023-.023a.307.307,0,0,0-.022-.022c-.007-.009-.016-.015-.023-.023s-.015-.015-.022-.023-.016-.015-.023-.023-.015-.015-.022-.022-.016-.015-.023-.023-.015-.015-.022-.022-.015-.015-.023-.023-.015-.015-.022-.023-.016-.015-.023-.023l-.022-.023c-.008-.009-.015-.015-.023-.022s-.015-.015-.023-.023-.015-.015-.022-.022-.015-.015-.023-.022-.016-.015-.023-.023a.309.309,0,0,0-.022-.022c-.007-.009-.015-.015-.022-.022s-.016-.015-.023-.023-.016-.015-.023-.023-.015-.015-.022-.022-.015-.015-.022-.022a.3.3,0,0,0-.023-.023l-.023-.023c-.007-.009-.015-.015-.022-.022s-.015-.015-.023-.022-.015-.015-.023-.023-.015-.015-.023-.023-.015-.015-.022-.023-.015-.015-.023-.023a.31.31,0,0,0-.022-.022c-.007-.009-.015-.015-.023-.023s-.015-.015-.022-.023-.015-.015-.023-.023a.242.242,0,0,0-.022-.022c-.007-.009-.015-.015-.023-.023s-.015-.015-.022-.023-.015-.015-.022-.022-.015-.015-.023-.023-.015-.015-.023-.023-.015-.015-.022-.022-.015-.015-.022-.023-.015-.015-.023-.023-.015-.015-.023-.023a.242.242,0,0,0-.022-.022c-.007-.009-.015-.015-.022-.023s-.016-.015-.023-.023-.015-.015-.023-.022-.015-.015-.022-.022-.015-.015-.023-.023-.015-.015-.022-.022-.015-.015-.023-.023-.015-.015-.022-.023-.015-.015-.023-.023-.015-.015-.023-.022-.015-.015-.022-.022-.016-.016-.023-.023l-.022-.022c-.007-.009-.015-.015-.023-.023a.275.275,0,0,0-.022-.022c-.007-.009-.015-.015-.023-.023l-.022-.022c-.007-.009-.015-.015-.023-.023s-.015-.015-.023-.023a.272.272,0,0,0-.022-.022c-.007-.009-.015-.015-.022-.023s-.015-.015-.023-.023a.307.307,0,0,0-.022-.022c-.007-.009-.015-.015-.023-.023s-.015-.015-.023-.023-.015-.014-.022-.022-.015-.015-.023-.023a.249.249,0,0,0-.022-.023c-.007-.008-.015-.015-.022-.022s-.015-.015-.023-.023-.015-.015-.023-.023a.222.222,0,0,0-.022-.022c-.007-.009-.015-.015-.022-.023s-.015-.015-.023-.022l-.023-.023a.284.284,0,0,0-.023-.023c-.007-.009-.015-.015-.022-.022s-.015-.015-.023-.023l-.023-.023c-.007-.009-.015-.015-.023-.022s-.015-.015-.022-.022a.293.293,0,0,0-.023-.023c-.007-.008-.015-.015-.022-.022s-.015-.015-.023-.023-.015-.015-.022-.022-.015-.015-.022-.022a.261.261,0,0,0-.023-.023.319.319,0,0,0-.023-.022c-.007-.009-.015-.015-.022-.023s-.015-.015-.023-.023l-.022-.022c-.008-.009-.016-.015-.023-.023s-.015-.014-.022-.022-.016-.015-.023-.023-.015-.015-.022-.023-.016-.015-.023-.023-.015-.014-.022-.022-.016-.015-.023-.023l-.023-.023c-.007-.009-.015-.015-.022-.022s-.015-.015-.023-.023-.015-.015-.023-.022-.015-.015-.022-.023l-.023-.023c-.007-.009-.016-.015-.023-.023s-.015-.015-.023-.022l-.022-.022c-.008-.009-.015-.015-.023-.023s-.016-.015-.023-.023-.015-.015-.023-.022-.015-.015-.022-.023-.015-.015-.023-.023-.015-.015-.022-.022-.015-.015-.022-.022-.015-.015-.023-.023-.016-.015-.023-.023a.311.311,0,0,0-.022-.022c-.007-.009-.015-.015-.023-.023l-.022-.022-.023-.023c-.007-.009-.015-.015-.022-.022s-.016-.015-.023-.023-.015-.015-.022-.022l-.023-.023c-.007-.009-.015-.015-.022-.022s-.016-.015-.023-.023-.015-.015-.022-.023l-.022-.022c-.007-.009-.015-.015-.023-.023s-.016-.015-.023-.023a.242.242,0,0,0-.022-.022c-.007-.009-.016-.015-.023-.023a.273.273,0,0,0-.022-.022c-.007-.009-.015-.015-.023-.023s-.015-.015-.023-.023-.015-.015-.023-.022-.015-.015-.022-.023-.015-.015-.023-.023-.015-.015-.023-.023-.015-.014-.022-.022a.222.222,0,0,0-.022-.022.286.286,0,0,0-.023-.023c-.007-.009-.015-.015-.023-.023s-.015-.015-.022-.022-.016-.015-.023-.023-.015-.015-.023-.023-.015-.015-.023-.022-.015-.015-.023-.023a.28.28,0,0,0-.022-.023c-.007-.009-.015-.015-.023-.023a.272.272,0,0,0-.022-.022c-.007-.009-.016-.015-.023-.023s-.015-.015-.023-.022-.015-.015-.022-.023-.015-.015-.023-.023-.016-.015-.023-.023a.251.251,0,0,0-.023-.023c-.007-.009-.015-.015-.022-.023s-.015-.015-.023-.023-.016-.015-.023-.023a.337.337,0,0,0-.253-.135.389.389,0,0,0-.32.229L12.282,20a.346.346,0,0,0,.027.465,6.651,6.651,0,0,1,.045.045.281.281,0,0,0,.023.022c.007.007.014.016.022.022a.293.293,0,0,0,.023.023.28.28,0,0,0,.023.022.242.242,0,0,0,.022.022c.007.008.015.016.023.023s.014.016.023.023.014.015.022.022a.229.229,0,0,0,.023.023c.007.007.014.016.022.023s.015.016.023.023.014.015.022.022a.28.28,0,0,0,.022.023c.007.007.014.016.023.023a.244.244,0,0,0,.022.022c.007.008.014.016.022.023a.231.231,0,0,0,.023.023c.007.007.014.016.022.023s.014.016.023.022a.28.28,0,0,0,.022.023.283.283,0,0,0,.023.023c.007.007.014.016.023.023s.015.016.023.023a.308.308,0,0,0,.022.022.233.233,0,0,0,.023.023c.007.007.014.016.022.023s.014.016.023.022l.022.023a.286.286,0,0,0,.023.023c.007.007.014.015.022.023s.015.016.023.023a.309.309,0,0,0,.022.022.224.224,0,0,0,.023.022.232.232,0,0,0,.023.023c.008.007.014.016.023.022a.247.247,0,0,0,.022.022.285.285,0,0,0,.023.023c.007.008.014.016.022.023s.015.016.023.022a.277.277,0,0,0,.022.022.233.233,0,0,0,.023.023.245.245,0,0,0,.022.022.258.258,0,0,0,.023.023.242.242,0,0,0,.022.022,6.955,6.955,0,0,1,.045.046,6.58,6.58,0,0,1,.045.045.247.247,0,0,0,.022.022.266.266,0,0,0,.023.023.315.315,0,0,0,.022.022.278.278,0,0,0,.022.022c.007.007.014.016.023.022a.261.261,0,0,0,.023.023.314.314,0,0,0,.022.022c.007.007.014.016.023.023a.275.275,0,0,0,.022.022.286.286,0,0,0,.023.023.228.228,0,0,0,.023.023.274.274,0,0,0,.022.022c.007.007.014.016.023.022a.286.286,0,0,0,.023.023.228.228,0,0,0,.023.023,298.117,298.117,0,0,0,.045.045c.007.008.014.016.023.023a3.32,3.32,0,0,1,.045.045.28.28,0,0,0,.023.022.289.289,0,0,0,.023.023.206.206,0,0,0,.023.023.284.284,0,0,0,.023.022.247.247,0,0,0,.022.022.244.244,0,0,0,.022.022c.008.008.015.016.023.023a.278.278,0,0,0,.022.022.25.25,0,0,0,.023.022.224.224,0,0,0,.023.022c.007.008.014.016.023.023s.014.015.023.023.014.016.023.023a.315.315,0,0,0,.022.022.256.256,0,0,0,.023.023.252.252,0,0,0,.023.023c.007.007.014.016.023.023s.014.015.023.022.014.016.022.023a.288.288,0,0,0,.023.023.281.281,0,0,0,.023.022.285.285,0,0,0,.023.023c.007.007.014.015.022.022s.014.016.023.023a.283.283,0,0,0,.023.022.2.2,0,0,0,.023.022.285.285,0,0,0,.023.023.311.311,0,0,0,.022.022.233.233,0,0,0,.023.023.2.2,0,0,0,.023.022,6.985,6.985,0,0,0,.045.045c.007.007.014.015.022.022a.283.283,0,0,0,.023.022c.007.008.014.016.023.023a.271.271,0,0,0,.022.022c.007.008.015.016.023.023s.014.016.023.022.014.016.023.023.014.015.022.022a.291.291,0,0,0,.023.023c.008.008.014.016.023.022s.014.016.023.023.014.016.023.022a.28.28,0,0,0,.022.023.256.256,0,0,0,.023.023c.007.008.014.016.022.023s.014.016.023.022.014.016.023.023.014.015.022.022.014.016.023.023.014.016.023.022a.261.261,0,0,0,.023.023.278.278,0,0,0,.022.022c.007.007.014.015.022.023s.014.016.023.022a.285.285,0,0,0,.023.023c.008.008.014.016.022.022s.014.016.023.023a.279.279,0,0,0,.023.022.291.291,0,0,0,.023.023l.018.018a5.6,5.6,0,0,0,1.142.118A6.408,6.408,0,0,0,22.537,19.1Z" transform="translate(777.756 485.443)"/>
        <path id="Path_307" data-name="Path 307" class="cls-4" d="M16.527,14.714,19.4,19.719H13.654l2.872-5.005m0-1.641a.4.4,0,0,0-.327.235l-3.918,6.827c-.18.313-.032.569.328.569h7.832c.36,0,.508-.256.328-.569l-3.918-6.827a.4.4,0,0,0-.327-.235Z" transform="translate(777.568 485.291)"/>
      </g>
      <text id="M" class="cls-2" transform="matrix(-1, 0, 0, 1, 817, 508)"><tspan x="0" y="0">M</tspan></text>
      <text id="N" class="cls-2" transform="translate(827 508)"><tspan x="0" y="0">N</tspan></text>
      <text id="G-2" data-name="G" class="cls-2" transform="matrix(-1, 0, 0, 1, 852, 508)"><tspan x="0" y="0">G</tspan></text>
    </g>
    <g id="Group_9" data-name="Group 9">
      <g id="Group_7" data-name="Group 7" transform="translate(-0.595 17)">
        <path id="Path_305-2" data-name="Path 305" class="cls-1" d="M15,8.5A6.5,6.5,0,1,1,8.5,2,6.5,6.5,0,0,1,15,8.5Z" transform="translate(785.595 494)"/>
        <path id="Path_306-2" data-name="Path 306" class="cls-3" d="M22.537,19.1l0,0c-.007-.008-.015-.015-.022-.022s-.016-.015-.023-.023a.312.312,0,0,0-.022-.022c-.007-.009-.015-.015-.023-.023s-.015-.015-.022-.022-.016-.015-.023-.022a.218.218,0,0,0-.022-.022c-.007-.009-.016-.015-.023-.023s-.015-.015-.022-.022-.015-.015-.022-.022-.015-.015-.023-.022-.015-.015-.023-.023-.015-.015-.022-.022-.016-.015-.023-.022a.275.275,0,0,0-.022-.022c-.007-.009-.015-.015-.023-.023s-.015-.015-.022-.023-.015-.015-.023-.022a.28.28,0,0,0-.023-.022l-.023-.023c-.007-.008-.015-.014-.022-.022s-.015-.015-.023-.023-.015-.015-.023-.023-.015-.015-.023-.023l-.022-.023c-.007-.009-.015-.015-.023-.022a.28.28,0,0,0-.023-.022c-.007-.009-.015-.015-.023-.023l-.022-.023-.022-.022a.294.294,0,0,0-.023-.023c-.007-.009-.015-.015-.023-.022s-.015-.015-.022-.023l-.022-.022-.023-.023c-.007-.009-.015-.015-.023-.023s-.015-.015-.022-.022l-.022-.023c-.007-.009-.015-.015-.023-.022a.279.279,0,0,0-.023-.022c-.007-.009-.015-.015-.022-.023l-.022-.022c-.007-.009-.015-.015-.023-.022s-.016-.015-.023-.023-.015-.014-.022-.022l-.022-.022-.023-.023c-.007-.008-.015-.015-.023-.022a.222.222,0,0,0-.022-.022.315.315,0,0,0-.022-.022.294.294,0,0,0-.023-.023c-.007-.009-.015-.015-.023-.023s-.015-.015-.022-.022l-.022-.023c-.007-.009-.015-.015-.023-.022s-.016-.015-.023-.022a.246.246,0,0,0-.022-.022c-.007-.009-.015-.015-.023-.023s-.015-.014-.022-.022a.29.29,0,0,0-.023-.023.245.245,0,0,0-.022-.022c-.007-.009-.015-.015-.023-.023s-.015-.014-.022-.022l-.023-.023a.281.281,0,0,0-.023-.022c-.007-.009-.015-.015-.022-.023l-.023-.023c-.007-.009-.016-.015-.023-.023s-.015-.015-.022-.022-.015-.015-.023-.023l-.023-.023-.022-.022-.023-.023c-.007-.008-.015-.015-.022-.022s-.015-.015-.023-.023-.014-.015-.022-.022-.016-.015-.023-.023-.015-.014-.022-.022-.016-.015-.023-.023-.015-.015-.023-.023-.015-.015-.022-.022-.015-.015-.023-.023-.015-.015-.023-.023-.015-.015-.023-.023-.015-.015-.022-.022-.015-.015-.023-.023-.015-.015-.023-.023l-.022-.022c-.008-.009-.016-.015-.023-.023s-.015-.014-.022-.022-.016-.015-.023-.023-.014-.015-.022-.022-.016-.015-.023-.023a.307.307,0,0,0-.022-.022c-.007-.009-.016-.015-.023-.023s-.015-.015-.022-.023-.016-.015-.023-.023-.015-.015-.022-.022-.016-.015-.023-.023-.015-.015-.022-.022-.015-.015-.023-.023-.015-.015-.022-.023-.016-.015-.023-.023l-.022-.023c-.008-.009-.015-.015-.023-.022s-.015-.015-.023-.023-.015-.015-.022-.022-.015-.015-.023-.022-.016-.015-.023-.023a.309.309,0,0,0-.022-.022c-.007-.009-.015-.015-.022-.022s-.016-.015-.023-.023-.016-.015-.023-.023-.015-.015-.022-.022-.015-.015-.022-.022a.3.3,0,0,0-.023-.023l-.023-.023c-.007-.009-.015-.015-.022-.022s-.015-.015-.023-.022-.015-.015-.023-.023-.015-.015-.023-.023-.015-.015-.022-.023-.015-.015-.023-.023a.31.31,0,0,0-.022-.022c-.007-.009-.015-.015-.023-.023s-.015-.015-.022-.023-.015-.015-.023-.023a.242.242,0,0,0-.022-.022c-.007-.009-.015-.015-.023-.023s-.015-.015-.022-.023-.015-.015-.022-.022-.015-.015-.023-.023-.015-.015-.023-.023-.015-.015-.022-.022-.015-.015-.022-.023-.015-.015-.023-.023-.015-.015-.023-.023a.242.242,0,0,0-.022-.022c-.007-.009-.015-.015-.022-.023s-.016-.015-.023-.023-.015-.015-.023-.022-.015-.015-.022-.022-.015-.015-.023-.023-.015-.015-.022-.022-.015-.015-.023-.023-.015-.015-.022-.023-.015-.015-.023-.023-.015-.015-.023-.022-.015-.015-.022-.022-.016-.016-.023-.023l-.022-.022c-.007-.009-.015-.015-.023-.023a.275.275,0,0,0-.022-.022c-.007-.009-.015-.015-.023-.023l-.022-.022c-.007-.009-.015-.015-.023-.023s-.015-.015-.023-.023a.272.272,0,0,0-.022-.022c-.007-.009-.015-.015-.022-.023s-.015-.015-.023-.023a.307.307,0,0,0-.022-.022c-.007-.009-.015-.015-.023-.023s-.015-.015-.023-.023-.015-.014-.022-.022-.015-.015-.023-.023a.249.249,0,0,0-.022-.023c-.007-.008-.015-.015-.022-.022s-.015-.015-.023-.023-.015-.015-.023-.023a.222.222,0,0,0-.022-.022c-.007-.009-.015-.015-.022-.023s-.015-.015-.023-.022l-.023-.023a.284.284,0,0,0-.023-.023c-.007-.009-.015-.015-.022-.022s-.015-.015-.023-.023l-.023-.023c-.007-.009-.015-.015-.023-.022s-.015-.015-.022-.022a.293.293,0,0,0-.023-.023c-.007-.008-.015-.015-.022-.022s-.015-.015-.023-.023-.015-.015-.022-.022-.015-.015-.022-.022a.261.261,0,0,0-.023-.023.319.319,0,0,0-.023-.022c-.007-.009-.015-.015-.022-.023s-.015-.015-.023-.023l-.022-.022c-.008-.009-.016-.015-.023-.023s-.015-.014-.022-.022-.016-.015-.023-.023-.015-.015-.022-.023-.016-.015-.023-.023-.015-.014-.022-.022-.016-.015-.023-.023l-.023-.023c-.007-.009-.015-.015-.022-.022s-.015-.015-.023-.023-.015-.015-.023-.022-.015-.015-.022-.023l-.023-.023c-.007-.009-.016-.015-.023-.023s-.015-.015-.023-.022l-.022-.022c-.008-.009-.015-.015-.023-.023s-.016-.015-.023-.023-.015-.015-.023-.022-.015-.015-.022-.023-.015-.015-.023-.023-.015-.015-.022-.022-.015-.015-.022-.022-.015-.015-.023-.023-.016-.015-.023-.023a.311.311,0,0,0-.022-.022c-.007-.009-.015-.015-.023-.023l-.022-.022-.023-.023c-.007-.009-.015-.015-.022-.022s-.016-.015-.023-.023-.015-.015-.022-.022l-.023-.023c-.007-.009-.015-.015-.022-.022s-.016-.015-.023-.023-.015-.015-.022-.023l-.022-.022c-.007-.009-.015-.015-.023-.023s-.016-.015-.023-.023a.242.242,0,0,0-.022-.022c-.007-.009-.016-.015-.023-.023a.273.273,0,0,0-.022-.022c-.007-.009-.015-.015-.023-.023s-.015-.015-.023-.023-.015-.015-.023-.022-.015-.015-.022-.023-.015-.015-.023-.023-.015-.015-.023-.023-.015-.014-.022-.022a.222.222,0,0,0-.022-.022.286.286,0,0,0-.023-.023c-.007-.009-.015-.015-.023-.023s-.015-.015-.022-.022-.016-.015-.023-.023-.015-.015-.023-.023-.015-.015-.023-.022-.015-.015-.023-.023a.28.28,0,0,0-.022-.023c-.007-.009-.015-.015-.023-.023a.272.272,0,0,0-.022-.022c-.007-.009-.016-.015-.023-.023s-.015-.015-.023-.022-.015-.015-.022-.023-.015-.015-.023-.023-.016-.015-.023-.023a.251.251,0,0,0-.023-.023c-.007-.009-.015-.015-.022-.023s-.015-.015-.023-.023-.016-.015-.023-.023a.337.337,0,0,0-.253-.135.389.389,0,0,0-.32.229L12.282,20a.346.346,0,0,0,.027.465,6.651,6.651,0,0,1,.045.045.281.281,0,0,0,.023.022c.007.007.014.016.022.022a.293.293,0,0,0,.023.023.28.28,0,0,0,.023.022.242.242,0,0,0,.022.022c.007.008.015.016.023.023s.014.016.023.023.014.015.022.022a.229.229,0,0,0,.023.023c.007.007.014.016.022.023s.015.016.023.023.014.015.022.022a.28.28,0,0,0,.022.023c.007.007.014.016.023.023a.244.244,0,0,0,.022.022c.007.008.014.016.022.023a.231.231,0,0,0,.023.023c.007.007.014.016.022.023s.014.016.023.022a.28.28,0,0,0,.022.023.283.283,0,0,0,.023.023c.007.007.014.016.023.023s.015.016.023.023a.308.308,0,0,0,.022.022.233.233,0,0,0,.023.023c.007.007.014.016.022.023s.014.016.023.022l.022.023a.286.286,0,0,0,.023.023c.007.007.014.015.022.023s.015.016.023.023a.309.309,0,0,0,.022.022.224.224,0,0,0,.023.022.232.232,0,0,0,.023.023c.008.007.014.016.023.022a.247.247,0,0,0,.022.022.285.285,0,0,0,.023.023c.007.008.014.016.022.023s.015.016.023.022a.277.277,0,0,0,.022.022.233.233,0,0,0,.023.023.245.245,0,0,0,.022.022.258.258,0,0,0,.023.023.242.242,0,0,0,.022.022,6.955,6.955,0,0,1,.045.046,6.58,6.58,0,0,1,.045.045.247.247,0,0,0,.022.022.266.266,0,0,0,.023.023.315.315,0,0,0,.022.022.278.278,0,0,0,.022.022c.007.007.014.016.023.022a.261.261,0,0,0,.023.023.314.314,0,0,0,.022.022c.007.007.014.016.023.023a.275.275,0,0,0,.022.022.286.286,0,0,0,.023.023.228.228,0,0,0,.023.023.274.274,0,0,0,.022.022c.007.007.014.016.023.022a.286.286,0,0,0,.023.023.228.228,0,0,0,.023.023,298.117,298.117,0,0,0,.045.045c.007.008.014.016.023.023a3.32,3.32,0,0,1,.045.045.28.28,0,0,0,.023.022.289.289,0,0,0,.023.023.206.206,0,0,0,.023.023.284.284,0,0,0,.023.022.247.247,0,0,0,.022.022.244.244,0,0,0,.022.022c.008.008.015.016.023.023a.278.278,0,0,0,.022.022.25.25,0,0,0,.023.022.224.224,0,0,0,.023.022c.007.008.014.016.023.023s.014.015.023.023.014.016.023.023a.315.315,0,0,0,.022.022.256.256,0,0,0,.023.023.252.252,0,0,0,.023.023c.007.007.014.016.023.023s.014.015.023.022.014.016.022.023a.288.288,0,0,0,.023.023.281.281,0,0,0,.023.022.285.285,0,0,0,.023.023c.007.007.014.015.022.022s.014.016.023.023a.283.283,0,0,0,.023.022.2.2,0,0,0,.023.022.285.285,0,0,0,.023.023.311.311,0,0,0,.022.022.233.233,0,0,0,.023.023.2.2,0,0,0,.023.022,6.985,6.985,0,0,0,.045.045c.007.007.014.015.022.022a.283.283,0,0,0,.023.022c.007.008.014.016.023.023a.271.271,0,0,0,.022.022c.007.008.015.016.023.023s.014.016.023.022.014.016.023.023.014.015.022.022a.291.291,0,0,0,.023.023c.008.008.014.016.023.022s.014.016.023.023.014.016.023.022a.28.28,0,0,0,.022.023.256.256,0,0,0,.023.023c.007.008.014.016.022.023s.014.016.023.022.014.016.023.023.014.015.022.022.014.016.023.023.014.016.023.022a.261.261,0,0,0,.023.023.278.278,0,0,0,.022.022c.007.007.014.015.022.023s.014.016.023.022a.285.285,0,0,0,.023.023c.008.008.014.016.022.022s.014.016.023.023a.279.279,0,0,0,.023.022.291.291,0,0,0,.023.023l.018.018a5.6,5.6,0,0,0,1.142.118A6.408,6.408,0,0,0,22.537,19.1Z" transform="translate(777.756 485.443)"/>
        <path id="Path_307-2" data-name="Path 307" class="cls-4" d="M16.527,14.714,19.4,19.719H13.654l2.872-5.005m0-1.641a.4.4,0,0,0-.327.235l-3.918,6.827c-.18.313-.032.569.328.569h7.832c.36,0,.508-.256.328-.569l-3.918-6.827a.4.4,0,0,0-.327-.235Z" transform="translate(777.568 485.291)"/>
      </g>
      <text id="D" class="cls-2" transform="translate(801.405 525)"><tspan x="0" y="0">D</tspan></text>
      <text id="D-2" data-name="D" class="cls-2" transform="translate(814.405 525)"><tspan x="0" y="0">D</tspan></text>
      <g id="Group_8" data-name="Group 8" transform="translate(40.405 17)">
        <path id="Path_305-3" data-name="Path 305" class="cls-1" d="M15,8.5A6.5,6.5,0,1,1,8.5,2,6.5,6.5,0,0,1,15,8.5Z" transform="translate(785.595 494)"/>
        <path id="Path_306-3" data-name="Path 306" class="cls-3" d="M22.537,19.1l0,0c-.007-.008-.015-.015-.022-.022s-.016-.015-.023-.023a.312.312,0,0,0-.022-.022c-.007-.009-.015-.015-.023-.023s-.015-.015-.022-.022-.016-.015-.023-.022a.218.218,0,0,0-.022-.022c-.007-.009-.016-.015-.023-.023s-.015-.015-.022-.022-.015-.015-.022-.022-.015-.015-.023-.022-.015-.015-.023-.023-.015-.015-.022-.022-.016-.015-.023-.022a.275.275,0,0,0-.022-.022c-.007-.009-.015-.015-.023-.023s-.015-.015-.022-.023-.015-.015-.023-.022a.28.28,0,0,0-.023-.022l-.023-.023c-.007-.008-.015-.014-.022-.022s-.015-.015-.023-.023-.015-.015-.023-.023-.015-.015-.023-.023l-.022-.023c-.007-.009-.015-.015-.023-.022a.28.28,0,0,0-.023-.022c-.007-.009-.015-.015-.023-.023l-.022-.023-.022-.022a.294.294,0,0,0-.023-.023c-.007-.009-.015-.015-.023-.022s-.015-.015-.022-.023l-.022-.022-.023-.023c-.007-.009-.015-.015-.023-.023s-.015-.015-.022-.022l-.022-.023c-.007-.009-.015-.015-.023-.022a.279.279,0,0,0-.023-.022c-.007-.009-.015-.015-.022-.023l-.022-.022c-.007-.009-.015-.015-.023-.022s-.016-.015-.023-.023-.015-.014-.022-.022l-.022-.022-.023-.023c-.007-.008-.015-.015-.023-.022a.222.222,0,0,0-.022-.022.315.315,0,0,0-.022-.022.294.294,0,0,0-.023-.023c-.007-.009-.015-.015-.023-.023s-.015-.015-.022-.022l-.022-.023c-.007-.009-.015-.015-.023-.022s-.016-.015-.023-.022a.246.246,0,0,0-.022-.022c-.007-.009-.015-.015-.023-.023s-.015-.014-.022-.022a.29.29,0,0,0-.023-.023.245.245,0,0,0-.022-.022c-.007-.009-.015-.015-.023-.023s-.015-.014-.022-.022l-.023-.023a.281.281,0,0,0-.023-.022c-.007-.009-.015-.015-.022-.023l-.023-.023c-.007-.009-.016-.015-.023-.023s-.015-.015-.022-.022-.015-.015-.023-.023l-.023-.023-.022-.022-.023-.023c-.007-.008-.015-.015-.022-.022s-.015-.015-.023-.023-.014-.015-.022-.022-.016-.015-.023-.023-.015-.014-.022-.022-.016-.015-.023-.023-.015-.015-.023-.023-.015-.015-.022-.022-.015-.015-.023-.023-.015-.015-.023-.023-.015-.015-.023-.023-.015-.015-.022-.022-.015-.015-.023-.023-.015-.015-.023-.023l-.022-.022c-.008-.009-.016-.015-.023-.023s-.015-.014-.022-.022-.016-.015-.023-.023-.014-.015-.022-.022-.016-.015-.023-.023a.307.307,0,0,0-.022-.022c-.007-.009-.016-.015-.023-.023s-.015-.015-.022-.023-.016-.015-.023-.023-.015-.015-.022-.022-.016-.015-.023-.023-.015-.015-.022-.022-.015-.015-.023-.023-.015-.015-.022-.023-.016-.015-.023-.023l-.022-.023c-.008-.009-.015-.015-.023-.022s-.015-.015-.023-.023-.015-.015-.022-.022-.015-.015-.023-.022-.016-.015-.023-.023a.309.309,0,0,0-.022-.022c-.007-.009-.015-.015-.022-.022s-.016-.015-.023-.023-.016-.015-.023-.023-.015-.015-.022-.022-.015-.015-.022-.022a.3.3,0,0,0-.023-.023l-.023-.023c-.007-.009-.015-.015-.022-.022s-.015-.015-.023-.022-.015-.015-.023-.023-.015-.015-.023-.023-.015-.015-.022-.023-.015-.015-.023-.023a.31.31,0,0,0-.022-.022c-.007-.009-.015-.015-.023-.023s-.015-.015-.022-.023-.015-.015-.023-.023a.242.242,0,0,0-.022-.022c-.007-.009-.015-.015-.023-.023s-.015-.015-.022-.023-.015-.015-.022-.022-.015-.015-.023-.023-.015-.015-.023-.023-.015-.015-.022-.022-.015-.015-.022-.023-.015-.015-.023-.023-.015-.015-.023-.023a.242.242,0,0,0-.022-.022c-.007-.009-.015-.015-.022-.023s-.016-.015-.023-.023-.015-.015-.023-.022-.015-.015-.022-.022-.015-.015-.023-.023-.015-.015-.022-.022-.015-.015-.023-.023-.015-.015-.022-.023-.015-.015-.023-.023-.015-.015-.023-.022-.015-.015-.022-.022-.016-.016-.023-.023l-.022-.022c-.007-.009-.015-.015-.023-.023a.275.275,0,0,0-.022-.022c-.007-.009-.015-.015-.023-.023l-.022-.022c-.007-.009-.015-.015-.023-.023s-.015-.015-.023-.023a.272.272,0,0,0-.022-.022c-.007-.009-.015-.015-.022-.023s-.015-.015-.023-.023a.307.307,0,0,0-.022-.022c-.007-.009-.015-.015-.023-.023s-.015-.015-.023-.023-.015-.014-.022-.022-.015-.015-.023-.023a.249.249,0,0,0-.022-.023c-.007-.008-.015-.015-.022-.022s-.015-.015-.023-.023-.015-.015-.023-.023a.222.222,0,0,0-.022-.022c-.007-.009-.015-.015-.022-.023s-.015-.015-.023-.022l-.023-.023a.284.284,0,0,0-.023-.023c-.007-.009-.015-.015-.022-.022s-.015-.015-.023-.023l-.023-.023c-.007-.009-.015-.015-.023-.022s-.015-.015-.022-.022a.293.293,0,0,0-.023-.023c-.007-.008-.015-.015-.022-.022s-.015-.015-.023-.023-.015-.015-.022-.022-.015-.015-.022-.022a.261.261,0,0,0-.023-.023.319.319,0,0,0-.023-.022c-.007-.009-.015-.015-.022-.023s-.015-.015-.023-.023l-.022-.022c-.008-.009-.016-.015-.023-.023s-.015-.014-.022-.022-.016-.015-.023-.023-.015-.015-.022-.023-.016-.015-.023-.023-.015-.014-.022-.022-.016-.015-.023-.023l-.023-.023c-.007-.009-.015-.015-.022-.022s-.015-.015-.023-.023-.015-.015-.023-.022-.015-.015-.022-.023l-.023-.023c-.007-.009-.016-.015-.023-.023s-.015-.015-.023-.022l-.022-.022c-.008-.009-.015-.015-.023-.023s-.016-.015-.023-.023-.015-.015-.023-.022-.015-.015-.022-.023-.015-.015-.023-.023-.015-.015-.022-.022-.015-.015-.022-.022-.015-.015-.023-.023-.016-.015-.023-.023a.311.311,0,0,0-.022-.022c-.007-.009-.015-.015-.023-.023l-.022-.022-.023-.023c-.007-.009-.015-.015-.022-.022s-.016-.015-.023-.023-.015-.015-.022-.022l-.023-.023c-.007-.009-.015-.015-.022-.022s-.016-.015-.023-.023-.015-.015-.022-.023l-.022-.022c-.007-.009-.015-.015-.023-.023s-.016-.015-.023-.023a.242.242,0,0,0-.022-.022c-.007-.009-.016-.015-.023-.023a.273.273,0,0,0-.022-.022c-.007-.009-.015-.015-.023-.023s-.015-.015-.023-.023-.015-.015-.023-.022-.015-.015-.022-.023-.015-.015-.023-.023-.015-.015-.023-.023-.015-.014-.022-.022a.222.222,0,0,0-.022-.022.286.286,0,0,0-.023-.023c-.007-.009-.015-.015-.023-.023s-.015-.015-.022-.022-.016-.015-.023-.023-.015-.015-.023-.023-.015-.015-.023-.022-.015-.015-.023-.023a.28.28,0,0,0-.022-.023c-.007-.009-.015-.015-.023-.023a.272.272,0,0,0-.022-.022c-.007-.009-.016-.015-.023-.023s-.015-.015-.023-.022-.015-.015-.022-.023-.015-.015-.023-.023-.016-.015-.023-.023a.251.251,0,0,0-.023-.023c-.007-.009-.015-.015-.022-.023s-.015-.015-.023-.023-.016-.015-.023-.023a.337.337,0,0,0-.253-.135.389.389,0,0,0-.32.229L12.282,20a.346.346,0,0,0,.027.465,6.651,6.651,0,0,1,.045.045.281.281,0,0,0,.023.022c.007.007.014.016.022.022a.293.293,0,0,0,.023.023.28.28,0,0,0,.023.022.242.242,0,0,0,.022.022c.007.008.015.016.023.023s.014.016.023.023.014.015.022.022a.229.229,0,0,0,.023.023c.007.007.014.016.022.023s.015.016.023.023.014.015.022.022a.28.28,0,0,0,.022.023c.007.007.014.016.023.023a.244.244,0,0,0,.022.022c.007.008.014.016.022.023a.231.231,0,0,0,.023.023c.007.007.014.016.022.023s.014.016.023.022a.28.28,0,0,0,.022.023.283.283,0,0,0,.023.023c.007.007.014.016.023.023s.015.016.023.023a.308.308,0,0,0,.022.022.233.233,0,0,0,.023.023c.007.007.014.016.022.023s.014.016.023.022l.022.023a.286.286,0,0,0,.023.023c.007.007.014.015.022.023s.015.016.023.023a.309.309,0,0,0,.022.022.224.224,0,0,0,.023.022.232.232,0,0,0,.023.023c.008.007.014.016.023.022a.247.247,0,0,0,.022.022.285.285,0,0,0,.023.023c.007.008.014.016.022.023s.015.016.023.022a.277.277,0,0,0,.022.022.233.233,0,0,0,.023.023.245.245,0,0,0,.022.022.258.258,0,0,0,.023.023.242.242,0,0,0,.022.022,6.955,6.955,0,0,1,.045.046,6.58,6.58,0,0,1,.045.045.247.247,0,0,0,.022.022.266.266,0,0,0,.023.023.315.315,0,0,0,.022.022.278.278,0,0,0,.022.022c.007.007.014.016.023.022a.261.261,0,0,0,.023.023.314.314,0,0,0,.022.022c.007.007.014.016.023.023a.275.275,0,0,0,.022.022.286.286,0,0,0,.023.023.228.228,0,0,0,.023.023.274.274,0,0,0,.022.022c.007.007.014.016.023.022a.286.286,0,0,0,.023.023.228.228,0,0,0,.023.023,298.117,298.117,0,0,0,.045.045c.007.008.014.016.023.023a3.32,3.32,0,0,1,.045.045.28.28,0,0,0,.023.022.289.289,0,0,0,.023.023.206.206,0,0,0,.023.023.284.284,0,0,0,.023.022.247.247,0,0,0,.022.022.244.244,0,0,0,.022.022c.008.008.015.016.023.023a.278.278,0,0,0,.022.022.25.25,0,0,0,.023.022.224.224,0,0,0,.023.022c.007.008.014.016.023.023s.014.015.023.023.014.016.023.023a.315.315,0,0,0,.022.022.256.256,0,0,0,.023.023.252.252,0,0,0,.023.023c.007.007.014.016.023.023s.014.015.023.022.014.016.022.023a.288.288,0,0,0,.023.023.281.281,0,0,0,.023.022.285.285,0,0,0,.023.023c.007.007.014.015.022.022s.014.016.023.023a.283.283,0,0,0,.023.022.2.2,0,0,0,.023.022.285.285,0,0,0,.023.023.311.311,0,0,0,.022.022.233.233,0,0,0,.023.023.2.2,0,0,0,.023.022,6.985,6.985,0,0,0,.045.045c.007.007.014.015.022.022a.283.283,0,0,0,.023.022c.007.008.014.016.023.023a.271.271,0,0,0,.022.022c.007.008.015.016.023.023s.014.016.023.022.014.016.023.023.014.015.022.022a.291.291,0,0,0,.023.023c.008.008.014.016.023.022s.014.016.023.023.014.016.023.022a.28.28,0,0,0,.022.023.256.256,0,0,0,.023.023c.007.008.014.016.022.023s.014.016.023.022.014.016.023.023.014.015.022.022.014.016.023.023.014.016.023.022a.261.261,0,0,0,.023.023.278.278,0,0,0,.022.022c.007.007.014.015.022.023s.014.016.023.022a.285.285,0,0,0,.023.023c.008.008.014.016.022.022s.014.016.023.023a.279.279,0,0,0,.023.022.291.291,0,0,0,.023.023l.018.018a5.6,5.6,0,0,0,1.142.118A6.408,6.408,0,0,0,22.537,19.1Z" transform="translate(777.756 485.443)"/>
        <path id="Path_307-3" data-name="Path 307" class="cls-4" d="M16.527,14.714,19.4,19.719H13.654l2.872-5.005m0-1.641a.4.4,0,0,0-.327.235l-3.918,6.827c-.18.313-.032.569.328.569h7.832c.36,0,.508-.256.328-.569l-3.918-6.827a.4.4,0,0,0-.327-.235Z" transform="translate(777.568 485.291)"/>
      </g>
    </g>
  </g>
</svg>
